<svg xmlns="http://www.w3.org/2000/svg" width="500" height="500"><path style="fill:#ee3643" d="M0 0h500v500H0z"/><path d="M93.8 93.7c-15.6.1-15.6 15.7-15.6 15.7v78.1c0 15 15.6 15.6 15.6 15.6h44c9.7 0 8 6.8 8 6.8s-12.4 66.6-13.7 77.9c-1.3 11.3-9.4 18.5-9.4 18.5s-20.3 6.2-24.6 8.5c-4.3 2.4-4.3 13.3-4.3 13.3h171.9v-5.8c0-7.5-40.1-16.1-53.1-17.4-13-1.4-10.4-10.3-10.4-10.3l5.3-44.7h15l5.5-31.2h-15l1.7-15.6h43.1c29.1-3.1 54.7-18.4 54.7-18.4v-67.5c-23-16.7-64.4-23.5-64.4-23.5H93.8zm290.9 42.2h63.1c2.9 0 5.2 4.6 5.2 11.6s-2.3 13.4-5.2 13.4h-63.1c-3.1 11.7-10.4 26.6-18.8 26.6h-37.8v-78.1h37.8c8.4 0 15.7 14.8 18.8 26.5zM103.1 406.2c-9.4 0-9.4-10.5-9.4-10.5v-52h171.9V396c0 9.2-10 10.2-10 10.2H103.1zM250 117.3v-.2c0-4.2-2.2-7.7-4.9-7.7H98.6c-2.7 0-4.9 3.5-4.9 7.7v.2c0 4.2 2.2 7.7 4.9 7.7h146.5c2.7 0 4.9-3.5 4.9-7.7z" style="fill-rule:evenodd;clip-rule:evenodd;fill:#fff"/></svg>