<svg xmlns="http://www.w3.org/2000/svg" width="500" height="250"><style>.st0{fill:#000}</style><path class="st0" d="m0 153.4 85.6-131H132v131.1h23.5v31.1H132v43.1H96.8v-43.1H0v-31.2zm96.8 0v-92l-58.9 92.1h58.9zM250.7 230.3c-11.3 0-21.6-1.8-30.6-5.4-9.1-3.6-16.8-9.3-23-17.2-6.3-7.8-11.1-17.9-14.5-30.2-3.4-12.3-5.1-27.3-5.1-44.9v-15.3c0-17.4 1.7-32.3 5.1-44.6 3.4-12.3 8.3-22.4 14.7-30.4 6.4-7.9 14-13.7 23-17.3 9-3.6 19.2-5.4 30.5-5.4s21.6 1.8 30.6 5.4c9.1 3.6 16.8 9.3 23.2 17.2 6.4 7.8 11.2 17.9 14.5 30.2 3.3 12.3 5 27.3 5 44.9v15.3c0 17.4-1.7 32.3-5.1 44.6-3.4 12.3-8.3 22.4-14.7 30.4-6.4 7.9-14 13.7-23 17.3-9.1 3.6-19.2 5.4-30.6 5.4zm0-32.9c5.7 0 10.7-1 15.2-2.9 4.5-2 8.3-5.4 11.4-10.3 3.1-4.9 5.5-11.5 7.2-19.8 1.7-8.3 2.5-18.9 2.5-31.8v-15.3c0-12.7-.9-23.2-2.6-31.5-1.8-8.3-4.2-15-7.3-19.9-3.1-5-6.9-8.5-11.4-10.4-4.5-2-9.5-2.9-15-2.9-5.7 0-10.8 1-15.2 2.9-4.5 2-8.3 5.4-11.4 10.3-3.1 4.9-5.5 11.5-7.2 19.8-1.7 8.3-2.5 18.9-2.5 31.8v15.3c0 12.7.8 23.2 2.5 31.5s4.1 15 7.3 19.9c3.2 5 7 8.5 11.4 10.4 4.4 2 9.5 2.9 15.1 2.9zM344.6 153.4l85.6-131.1h46.3v131.1H500v31.1h-23.5v43.1h-35.2v-43.1h-96.8v-31.1zm96.7 0v-92l-58.9 92.1h58.9z"/></svg>