<svg xmlns="http://www.w3.org/2000/svg" width="500" height="500" viewBox="0 0 500 500">
  <style type="text/css">
    .st0{fill:#EE3643;}
    .st1{fill-rule:evenodd;clip-rule:evenodd;fill:#FFFFFF;}
  </style>
  <g>
    <rect class="st0" width="500" height="500"/>
    <path class="st1" d="M93.8,93.7c-15.6,0.1-15.6,15.7-15.6,15.7v78.1c0,15,15.6,15.6,15.6,15.6h44c9.7,0,8,6.8,8,6.8		s-12.4,66.6-13.7,77.9c-1.3,11.3-9.4,18.5-9.4,18.5s-20.3,6.2-24.6,8.5c-4.3,2.4-4.3,13.3-4.3,13.3h171.9v-5.8		c0-7.5-40.1-16.1-53.1-17.4c-13-1.4-10.4-10.3-10.4-10.3l5.3-44.7h15l5.5-31.2h-15l1.7-15.6h43.1c29.1-3.1,54.7-18.4,54.7-18.4		v-67.5c-23-16.7-64.4-23.5-64.4-23.5H93.8z M384.7,135.9h63.1c2.9,0,5.2,4.6,5.2,11.6c0,7-2.3,13.4-5.2,13.4h-63.1		c-3.1,11.7-10.4,26.6-18.8,26.6h-37.8v-78.1h37.8C374.3,109.4,381.6,124.2,384.7,135.9z M103.1,406.2c-9.4,0-9.4-10.5-9.4-10.5v-52		h171.9v52.3c0,9.2-10,10.2-10,10.2H103.1z M250,117.3v-0.2c0-4.2-2.2-7.7-4.9-7.7H98.6c-2.7,0-4.9,3.5-4.9,7.7v0.2		c0,4.2,2.2,7.7,4.9,7.7h146.5C247.8,125,250,121.5,250,117.3z"/>
  </g>
</svg>
