<svg xmlns="http://www.w3.org/2000/svg"><style>:root svg:not(:target){display:none}</style><svg id="github" viewBox="0 0 500 500"><path d="M250.2 4.2C111.8 4.2 0 116.8 0 256.2 0 367.7 71.7 462 171.1 495.4c12.4 2.5 17-5.4 17-12.1 0-5.8-.4-25.9-.4-46.7-69.6 15-84.1-30-84.1-30-11.2-29.2-27.8-36.7-27.8-36.7-22.8-15.4 1.7-15.4 1.7-15.4 25.3 1.7 38.5 25.9 38.5 25.9 22.4 38.4 58.4 27.5 72.9 20.9 2.1-16.3 8.7-27.5 15.7-33.8-55.5-5.8-113.9-27.5-113.9-124.4 0-27.5 9.9-50.1 25.7-67.6-2.5-6.3-11.2-32.1 2.5-66.8 0 0 21.1-6.7 68.8 25.9 20.4-5.5 41.4-8.3 62.6-8.3 21.1 0 42.7 2.9 62.5 8.3 47.6-32.6 68.8-25.9 68.8-25.9 13.7 34.6 5 60.5 2.5 66.8 16.2 17.5 25.7 40.1 25.7 67.6 0 96.8-58.4 118.1-114.3 124.4 9.1 7.9 17 22.9 17 46.7 0 33.8-.4 60.9-.4 69.3 0 6.7 4.6 14.6 17 12.1C428.3 462 500 367.7 500 256.2c.4-139.4-111.9-252-249.8-252z"></path></svg><svg id="search" viewBox="0 0 17 17"><path fill="#fff" d="m17 15.586-3.542-3.542A7.465 7.465 0 0 0 15 7.5 7.5 7.5 0 1 0 7.5 15c1.71 0 3.282-.579 4.544-1.542L15.586 17 17 15.586zM2 7.5C2 4.467 4.467 2 7.5 2 10.532 2 13 4.467 13 7.5c0 3.032-2.468 5.5-5.5 5.5A5.506 5.506 0 0 1 2 7.5z"></path></svg><svg id="telegram" viewBox="0 0 500 500"><path d="M34.4 221.2c134.2-58.5 223.7-97 268.5-115.7 127.9-53.2 154.4-62.4 171.7-62.7 3.8-.1 12.3.9 17.8 5.4 4.7 3.8 5.9 8.9 6.6 12.5.6 3.6 1.4 11.7.8 18.1-6.9 72.8-36.9 249.5-52.2 331-6.5 34.5-19.2 46.1-31.5 47.2-26.7 2.5-47-17.7-72.9-34.6-40.5-26.6-63.4-43.1-102.7-69-45.5-30-16-46.4 9.9-73.3 6.8-7 124.6-114.2 126.9-123.9.3-1.2.5-5.7-2.1-8.1-2.7-2.4-6.7-1.6-9.5-.9-4.1.9-68.8 43.7-194.2 128.4-18.4 12.6-35 18.8-49.9 18.4-16.4-.4-48.1-9.3-71.6-16.9-29-9.6-51.9-14.5-49.9-30.5 1.1-8.3 12.5-16.7 34.3-25.4z"></path></svg><svg id="vk" viewBox="0 0 500 500"><path d="M285.2 406V294.6c61.5 6.2 107.4 52.1 126.1 111.4H500c-24.1-88.7-86.4-137.7-125.2-156.4 38.8-23.2 93.6-79.3 106.5-155.5h-80.6c-17 61.9-67.3 118.1-115.4 123.4V94h-82v216.1c-50-12.3-115.1-73-117.7-216.1H0c4 194.8 106.5 312 275.4 312h9.8z"></path></svg><svg id="youtube" viewBox="0 0 500 500"><path d="M489.6 129.7c-5.8-21.5-22.7-38.5-44.2-44.2C406.4 75 250 75 250 75S93.6 75 54.7 85.4c-21.5 5.8-38.5 22.7-44.2 44.2C0 168.6 0 250 0 250s0 81.4 10.4 120.3c5.8 21.5 22.7 38.5 44.2 44.2C93.6 425 250 425 250 425s156.4 0 195.3-10.4c21.5-5.8 38.5-22.7 44.2-44.2C500 331.4 500 250 500 250s0-81.4-10.4-120.3zM200 325V175l129.9 75L200 325z"></path></svg></svg>