<svg xmlns="http://www.w3.org/2000/svg" viewBox="0 0 60 59" style="enable-background:new 0 0 60 59;">
  <style type="text/css">
    .st0{fill:#EE3643;}
    .st1{fill:#FFFFFF;}
  </style>
  <path class="st0" d="M0,0h39l21,21v38L0,0z"/>
  <g>
    <path class="st1" d="M28.3,16l5.7-5.7l0.6,0.6l-0.8,0.8c0.9-0.3,1.7-0.2,2.2,0.3c0.2,0.2,0.4,0.5,0.5,0.8c0.1,0.3,0.1,0.6,0,0.9		c-0.1,0.3-0.3,0.6-0.5,0.9c-0.2,0.2-0.5,0.5-0.9,1l-3.5,3.5l-0.7-0.7l3.5-3.5c0.4-0.4,0.7-0.7,0.8-1c0.1-0.2,0.2-0.5,0.2-0.7		c0-0.3-0.1-0.5-0.3-0.6c-0.3-0.3-0.7-0.4-1.1-0.3c-0.5,0.1-1.1,0.4-1.8,1.2l-3.1,3.1L28.3,16z"/>
    <path class="st1" d="M37.1,21.1l0.6,0.8c-0.7,0.5-1.4,0.7-2,0.8c-0.6,0-1.2-0.2-1.6-0.7c-0.6-0.6-0.8-1.3-0.6-2.2		c0.2-0.9,0.7-1.7,1.7-2.7c1-1,1.9-1.5,2.8-1.7c0.9-0.2,1.6,0,2.1,0.5c0.5,0.5,0.7,1.2,0.5,2.1c-0.2,0.9-0.7,1.8-1.7,2.7		c-0.1,0.1-0.1,0.1-0.3,0.3l-3-3c-0.6,0.7-1,1.3-1.1,1.8c-0.1,0.6,0,1,0.3,1.3c0.2,0.2,0.6,0.4,0.9,0.4		C36.2,21.6,36.6,21.4,37.1,21.1z M36.5,17.3l2.2,2.2c0.5-0.5,0.7-1,0.8-1.3c0.2-0.6,0.1-1.1-0.3-1.4c-0.3-0.3-0.7-0.4-1.2-0.3		C37.5,16.6,37,16.8,36.5,17.3z"/>
    <path class="st1" d="M37.5,25.2l4.5-6.9l0.7,0.7l-2.7,3.9l-1,1.5c0.1-0.1,0.5-0.4,1.4-1l4-2.7l0.7,0.7l-2.7,3.9l-0.9,1.3l1.3-0.9		l4-2.6l0.7,0.7l-7,4.5l-0.7-0.7l2.8-4.1l0.8-1.1l-5.2,3.6L37.5,25.2z"/>
  </g>
</svg>
